<svg width="183" height="42" viewBox="0 0 183 42" fill="none" xmlns="http://www.w3.org/2000/svg">
<path fill-rule="evenodd" clip-rule="evenodd" d="M8.93501 23.9267C8.93501 23.9267 6.40859 27.6588 5.35947 30.0494H11.2895C11.4549 29.4351 12.4065 26.8353 16.8581 25.8924C16.8581 25.8924 14.922 27.3314 14.7818 30.0494H21.7949C22.1201 29.2982 23.2755 27.4409 26.7459 27.4409C26.7459 27.4409 28.6985 27.615 27.9198 30.0494H34.7446C34.7851 29.4581 34.5858 26.9875 28.8715 24.9769C31.2577 25.7358 42.1738 28.4747 42.1738 15.0519C42.1738 15.0519 40.7447 18.0295 36.0981 18.0295C36.0981 18.0295 37.3487 17.7919 37.3487 15.8853C37.3487 15.8853 36.8132 16.5402 35.6809 16.5402C34.0393 16.5402 31.4998 15.0245 33.1194 11C33.1194 11 23.351 11.1194 13.6407 19.7565C13.6407 19.7565 14.6537 18.1478 14.6537 17.0165C14.6537 17.0165 8.93501 21.8416 0 21.6631C0 21.6631 2.85933 24.3439 7.26715 25.1182L8.93501 23.9267ZM32.1645 17.2246C32.4656 17.6627 30.662 17.851 30.662 17.851L29.338 15.6093C29.338 15.6093 31.7111 16.5643 32.1645 17.2246ZM60.7589 18.0973C60.0285 17.4457 59.1031 16.9321 57.985 16.5576C56.8658 16.182 55.5495 15.9947 54.036 15.9947H46.4929L47.2431 16.942V29.7175L46.4929 30.6648H54.036C55.3786 30.6648 56.5964 30.4874 57.6893 30.1315C58.7812 29.7756 59.7131 29.2762 60.483 28.6312C61.2528 27.9862 61.8486 27.2163 62.2702 26.3205C62.6907 25.4247 62.9021 24.4314 62.9021 23.3385C62.9021 22.2993 62.7268 21.3279 62.3786 20.4255C62.0303 19.5253 61.4905 18.7478 60.7589 18.0973ZM59.6244 25.324C59.3473 25.8967 58.9498 26.3906 58.4296 26.8056C57.9094 27.2207 57.2841 27.5394 56.5537 27.7628C55.8233 27.9873 55.003 28.099 54.0952 28.099H50.0476V18.462H54.0952C55.0819 18.462 55.9437 18.5901 56.6818 18.8475C57.4188 19.1037 58.0376 19.4564 58.538 19.9032C59.0385 20.3511 59.413 20.8745 59.6638 21.4735C59.9135 22.0726 60.0394 22.7132 60.0394 23.3977C60.0383 24.1095 59.9004 24.7512 59.6244 25.324ZM70.3159 24.2672L73.0307 20.6741L72.7153 20.2985H76.6051L75.7958 20.6741L71.5107 26.4191V29.7175L72.044 30.6648H68.5298L69.1014 29.6978V26.3994L64.6191 20.6741L63.8295 20.2985H67.8387L67.542 20.6741L70.3159 24.2672ZM86.9123 20.6938V27.1309L81.0283 20.2985H77.7309L78.284 20.6741V29.7175L77.7309 30.6648H81.1663L80.633 29.7175V23.5565L86.6955 30.6648H89.2822V20.6741L89.8144 20.2985H86.3987L86.9123 20.6938ZM96.8242 19.727H99.0954L104.387 29.698L105.137 30.665H101.208L101.603 29.7177L100.853 28.0389H95.245L94.277 29.7177L94.6132 30.665H90.9401L91.6509 29.7177L96.8242 19.727ZM97.9302 22.4122L96.1737 26.025H99.6879L97.9302 22.4122ZM120.775 19.7258H117.458L113.549 27.2689L109.619 19.7258H106.302L106.855 20.6742V29.7176L106.302 30.6648H109.698L109.165 29.7176V23.6945L112.799 30.6648H114.279L117.932 23.6945V29.7176L117.379 30.6648H120.775L120.242 29.7176V20.6742L120.775 19.7258ZM122.612 19.7258H126.107L125.574 20.6742V29.7176L126.107 30.6648H122.612L123.165 29.7176V20.6742L122.612 19.7258ZM140.975 27.2098C140.804 27.3675 140.597 27.5164 140.353 27.6544C140.109 27.7924 139.816 27.914 139.474 28.0202C139.132 28.1253 138.731 28.214 138.27 28.2863C137.809 28.3586 137.275 28.3947 136.67 28.3947C135.801 28.3947 135.002 28.2666 134.271 28.0103C133.541 27.7541 132.905 27.4058 132.365 26.9656C131.825 26.5254 131.403 26.0063 131.101 25.4083C130.798 24.8104 130.648 24.1698 130.648 23.4875C130.648 22.7647 130.796 22.088 131.091 21.4572C131.388 20.8264 131.802 20.2778 132.335 19.8112C132.869 19.3447 133.5 18.9768 134.231 18.7074C134.961 18.438 135.774 18.3033 136.67 18.3033C137.091 18.3033 137.486 18.3263 137.855 18.3723C138.223 18.4183 138.572 18.4905 138.9 18.5891C139.23 18.6877 139.552 18.8191 139.869 18.9844C140.185 19.1487 140.507 19.3557 140.836 19.6064L141.073 20.8297L143.857 17.5268L142.672 17.4469C142.554 17.368 142.327 17.2344 141.991 17.0494C141.655 16.8632 141.236 16.6748 140.737 16.4821C140.237 16.2894 139.674 16.1174 139.048 15.9652C138.423 15.813 137.768 15.7363 137.084 15.7363C135.531 15.7363 134.167 15.94 132.997 16.3485C131.825 16.757 130.847 17.3133 130.064 18.0174C129.281 18.7216 128.689 19.5473 128.288 20.4957C127.886 21.4429 127.685 22.457 127.685 23.5368C127.685 24.656 127.919 25.6766 128.386 26.5976C128.853 27.5186 129.486 28.306 130.282 28.9565C131.078 29.6081 132.025 30.1118 133.126 30.4667C134.224 30.8226 135.406 31 136.67 31C137.302 31 137.884 30.9671 138.418 30.9014C138.951 30.8357 139.458 30.7328 139.938 30.5948C140.418 30.4568 140.886 30.2827 141.339 30.0713C141.793 29.8611 142.278 29.6245 142.79 29.3606L143.994 29.3409L141.23 26.0435L140.975 27.2098ZM154.679 26.0458V20.6743L154.143 19.727H157.639L157.086 20.6743V26.1433C157.086 27.0391 156.912 27.7925 156.564 28.4047C156.215 29.0168 155.774 29.5074 155.241 29.8754C154.708 30.2445 154.118 30.5073 153.474 30.665C152.829 30.8238 152.203 30.9026 151.598 30.9026C150.98 30.9026 150.347 30.8227 149.703 30.665C149.057 30.5073 148.469 30.2445 147.935 29.8754C147.402 29.5074 146.961 29.0168 146.612 28.4047C146.263 27.7925 146.089 27.0391 146.089 26.1433V20.6743L145.537 19.727H149.051L148.498 20.6743V26.0458C148.498 26.8748 148.781 27.5242 149.345 27.9907C149.909 28.4583 150.663 28.6916 151.608 28.6916C152.54 28.6916 153.285 28.4583 153.842 27.9907C154.401 27.5231 154.679 26.8748 154.679 26.0458ZM168.067 26.3611C168.698 26.0851 169.204 25.6898 169.587 25.1762C169.969 24.6625 170.159 24.0372 170.159 23.3002C170.159 22.181 169.807 21.306 169.103 20.6742C168.397 20.0423 167.401 19.7258 166.111 19.7258H159.457L159.989 20.6742V29.7176L159.457 30.6648H162.972L162.399 29.7176V26.9338H165.803L167.691 29.7176L167.415 30.6648H171.306L170.535 29.7176L168.067 26.3611ZM167.219 24.4326C166.826 24.6779 166.334 24.7994 165.743 24.7994H162.398V21.858H165.743C166.333 21.858 166.825 21.9806 167.219 22.2259C167.612 22.4712 167.809 22.8315 167.809 23.309C167.809 23.8138 167.613 24.1884 167.219 24.4326ZM173.555 20.6742L173.002 19.7258H182.618V22.6881L181.73 21.858H175.964V23.9912H180.92L181.77 23.4382V26.499L180.92 25.9657H175.964V28.4538H181.888L182.757 27.604V30.6648H173.002L173.555 29.7176V20.6742Z" fill="white"/>
</svg>
